<svg width="373" height="99" viewBox="0 0 373 99" fill="none" xmlns="http://www.w3.org/2000/svg">
<mask id="path-1-outside-1_6_56" maskUnits="userSpaceOnUse" x="0" y="0" width="373" height="99" fill="black">
<rect fill="white" width="373" height="99"/>
<path d="M4.07001 3C4.59149 3.05085 5.10932 3.12204 5.62714 3.19934C5.80829 5.2741 6.37003 7.37124 7.55572 9.01885C8.34435 9.92401 9.45685 10.5607 10.6133 10.5078C12.0551 10.5729 13.6159 10.6705 14.8986 9.80197C17.9909 7.89197 21.5406 7.04172 25.0666 7.09257C27.8149 7.29394 30.6401 7.45871 33.1816 8.76255C34.2336 9.49535 35.8001 10.6369 36.0579 10.9292C39.1264 13.5186 41.0441 16.2581 42.6635 20.249C44.2499 23.8351 44.9855 27.8748 44.8409 31.8677C44.8135 43.3948 44.8336 54.922 44.8336 66.4491C44.7915 72.9805 42.894 79.7174 38.6618 84.408C37.8128 85.3132 36.9089 86.1593 36.1605 87.1723C42.2317 85.7912 48.1345 83.6615 54.0941 81.8003C54.2551 61.0893 54.1014 40.3742 54.1727 19.6612C54.3356 16.8094 53.5964 13.8091 51.794 11.716C49.8655 9.58839 46.9927 9.4338 44.4512 9.23853C44.4329 8.78493 44.4164 8.33336 44.4091 7.88179C55.1004 7.83704 65.7918 7.89196 76.4849 7.85128C80.58 7.79229 84.9147 8.66695 88.2668 11.4414C89.4909 12.4727 90.4753 13.8355 91.1761 15.3509C92.2136 17.8529 92.4167 20.6314 92.6857 23.3327C92.94 30.2058 92.5997 37.0892 92.8614 43.9623C93.0919 47.107 92.263 50.4144 90.3747 52.8065C88.7005 55.282 86.2065 56.8157 83.6979 58.0199C82.5268 58.5894 81.2057 58.4613 79.9615 58.5284C76.302 58.5365 72.6424 58.4938 68.9829 58.5182C68.9811 64.5574 68.9719 70.5986 68.9865 76.6398C71.991 75.8852 74.9479 74.9068 77.967 74.2071C84.0181 72.9093 90.0271 71.3309 96.1348 70.381C97.906 69.962 99.712 69.785 101.491 69.4188C101.62 56.1566 101.529 42.8924 101.54 29.6282C101.335 25.2691 101.491 20.8918 101.201 16.5409C100.568 14.2485 99.121 12.2246 97.2967 10.9594C96.2226 10.1966 94.9034 10.0806 93.6829 9.82231C93.6079 9.30972 93.5311 8.79306 93.4707 8.28251C100.06 8.26624 106.647 8.26217 113.236 8.28454C117.25 23.3998 120.952 38.6188 125.065 53.7035C125.794 50.5548 126.443 47.3714 127.418 44.302C127.801 43.2138 127.806 42.0238 128.117 40.9132C130.205 32.2582 132.168 23.5646 134.21 14.8953C134.811 12.5765 135.343 10.2352 135.826 7.88179C152.192 7.88179 168.561 7.80043 184.926 7.92248C184.904 8.55914 184.857 9.19581 184.793 9.83044C182.613 10.2698 180.171 10.5993 178.643 12.6029C177.349 14.2424 177.113 16.5083 177.159 18.6055C177.073 32.0426 177.141 45.4838 177.122 58.923C177.642 58.9067 178.235 58.9271 178.773 58.921C180.196 52.7841 181.17 46.5273 182.619 40.3986C182.932 39.3572 183.078 38.273 183.239 37.1949C185.157 27.4029 187.263 17.6596 189.233 7.88179C196.43 7.84518 203.626 7.87162 210.823 7.86552C210.984 8.6283 211.064 9.40735 211.143 10.1884C208.472 10.518 205.701 11.1831 203.487 12.969C202.432 13.7806 201.819 15.1252 201.753 16.5409C201.465 21.3047 201.742 26.0828 201.621 30.8527C201.304 40.0671 201.513 49.2916 201.458 58.5121C210.003 58.3473 218.537 58.7887 227.071 59.1427C227.071 42.6788 227.079 26.217 227.068 9.75518C225.47 9.64127 223.834 10.2657 222.841 11.7079C220.793 14.5373 219.763 18.0624 218.879 21.5101C217.086 28.6762 216.16 36.064 215.481 43.4497C214.852 47.6908 214.863 52.0031 214.471 56.2726C213.877 56.2584 213.374 56.2827 212.803 56.2766C212.799 40.1403 212.799 24.0039 212.803 7.86755C227.318 7.86552 241.832 7.86349 256.348 7.86755C256.362 14.9868 256.329 22.1041 256.357 29.2234C256.631 38.2771 256.562 47.3409 256.474 56.3987C255.918 56.4231 255.416 56.4638 254.882 56.4943C254.593 50.1459 254.413 43.7833 253.581 37.4838C253.155 32.5613 252.295 27.71 251.266 22.9035C250.384 19.2869 249.371 15.6154 247.416 12.5154C246.39 10.6766 244.611 9.33616 242.643 9.19378C242.533 17.2935 242.804 25.3993 242.458 33.4929C242.418 42.7053 242.452 51.9196 242.447 61.132C248.459 61.2622 254.426 62.1348 260.36 63.162C262.847 49.6476 265.194 36.1006 267.376 22.519C267.828 19.9968 268.197 17.4196 268.003 14.8424C267.851 13.0768 267.002 11.2665 265.427 10.6197C263.088 9.76332 260.567 9.87113 258.168 10.3227C258.091 9.64127 258.024 8.95782 257.965 8.27641C265.855 8.2642 273.747 8.27844 281.639 8.26827C284.828 24.6467 287.792 41.0861 290.934 57.4788C291.529 61.0913 292.427 64.6286 292.967 68.2533C293.119 68.8188 293.075 69.6446 293.682 69.8806C295.602 70.7146 297.556 71.4692 299.532 72.1323C299.521 67.3217 299.611 62.507 299.382 57.7025C299.349 55.6115 299.137 53.5184 299.239 51.4254C299.523 49.0679 300.171 46.7592 301.131 44.6336C302.249 42.3554 304.03 40.4413 306.218 39.4812C309.619 37.974 313.414 38.2384 316.962 38.8893C315.096 37.6485 313.539 35.5738 313.334 33.1024C312.926 28.487 312.9 23.8392 312.862 19.2035C311.746 20.7901 310.864 22.7163 309.151 23.6093C306.838 24.7057 304.136 24.9071 301.775 23.8819C299.612 23.2086 297.905 21.3372 296.886 19.1689C296.363 17.3606 295.697 15.3448 296.518 13.4918C296.95 11.655 298.099 10.0664 299.603 9.17954C301.795 7.91027 304.339 7.40379 306.794 7.73331C308.642 8.19708 310.498 8.85002 312.128 9.94028C313.306 11.1546 314.693 12.6517 314.681 14.58C314.929 20.6782 315.175 26.7804 315.301 32.8827C315.535 34.2455 316.141 35.649 317.25 36.3874C318.558 37.5672 320.223 37.9679 321.822 38.3889C322.124 30.3218 322.162 22.2343 321.87 14.1651C321.93 12.967 321.584 11.7079 320.814 10.8536C319.162 9.16733 316.745 9.82231 314.724 9.46228C314.723 9.1653 314.721 8.57135 314.719 8.27437C324.878 8.30488 335.037 8.19911 345.197 8.32929C345.216 8.64457 345.254 9.27311 345.272 9.58839C343.494 9.78163 341.615 10.0867 340.178 11.3723C337.803 13.1785 337.221 16.6731 337.401 19.6612C337.637 25.981 337.595 32.307 337.6 38.633C339.567 38.3239 341.615 37.7258 343.084 36.1454C344.396 34.8191 344.874 32.7688 344.888 30.8567C344.899 26.7174 345.099 22.5821 345.093 18.4407C345.122 16.1544 345.152 13.685 346.396 11.7486C347.902 8.78696 351.146 7.57465 354.057 7.66415C356.458 7.70279 359.109 7.74755 361.17 9.32192C361.887 9.95046 362.772 10.4691 363.146 11.4496C363.572 12.5744 364.029 13.6871 364.441 14.82C365.01 16.3761 364.05 17.9363 363.371 19.2381C361.446 22.9584 357.283 24.9904 353.51 24.13C351.979 23.7537 350.425 23.1638 349.254 21.9617C348.389 21.1887 347.801 20.131 347.17 19.1364C347.005 23.6947 347.638 28.2836 347.042 32.8196C346.487 35.0246 344.945 36.6498 343.562 38.2506C345.659 38.4988 347.726 39.0114 349.851 38.9524C351.743 38.8975 353.753 39.1822 355.353 40.3986C357.792 42.154 359.375 45.0607 360.066 48.1525C361.376 52.6092 360.952 57.3628 361.012 61.9721C360.884 68.7456 361.426 75.513 361.098 82.2864C361.047 84.4446 361.695 86.7777 363.305 88.1121C365.149 89.7536 367.555 89.9061 369.771 90.4757C369.877 91.0086 369.855 91.4968 370 92.046C366.71 92.0216 363.431 92.2494 360.156 92.5626C356.913 92.9959 353.728 91.9626 350.647 90.976C346.921 89.4566 343.252 87.75 339.494 86.3322C339.946 87.4815 340.59 88.6226 341.611 89.2389C342.857 90.1604 344.4 90.2661 345.81 90.6913C345.809 91.21 345.814 91.7307 345.829 92.2534C335.461 92.7172 325.081 92.3857 314.71 92.4813C314.648 91.869 314.752 91.3259 314.739 90.7319C316.69 90.1075 318.713 89.2104 320.005 87.3839C321.392 85.4311 321.873 82.9272 322.082 80.5046C319.786 79.5303 317.436 78.6698 315.004 78.2427C314.47 83.2974 312.558 88.7609 308.291 91.2567C305.349 93.1728 301.863 92.6684 298.615 92.6806C289.73 92.2738 280.832 92.583 271.941 92.4752C271.858 91.8161 271.826 91.1876 271.741 90.5387C273.73 90.2743 275.91 90.0749 277.47 88.5046C279.013 86.9791 279.183 84.4161 278.878 82.2925C278.239 77.7016 277.511 73.1188 277.201 68.4791C272.115 67.5149 266.962 67.0695 261.884 66.0219C260.964 71.6929 260.038 77.3619 259.149 83.0391C259.032 84.0296 258.858 85.0447 258.981 86.0434C259.348 87.6015 260.351 88.9664 261.722 89.5542C263.789 90.4553 266.067 90.256 268.241 90.4797C268.236 91.0086 268.237 91.5415 268.245 92.0744C262.752 92.1131 257.261 92.0053 251.773 92.1253C245.803 92.4752 239.821 92.1334 233.851 92.3429C227.812 92.6277 221.767 92.4263 215.729 92.4813C215.729 91.9849 215.73 90.9923 215.732 90.496C218.398 90.2499 221.185 90.4289 223.728 89.3834C225.49 88.2687 226.806 86.1207 226.961 83.8527C227.316 79.5547 227.221 75.2363 227.302 70.9302C227.47 67.7428 227.454 64.5513 227.439 61.3639C221.154 61.5103 214.876 61.0689 208.592 61.1584C206.15 61.1727 203.712 61.0059 201.273 60.9388C201.147 67.2526 201.581 73.5582 201.444 79.874C201.436 82.262 201.295 85.1097 202.977 86.9282C204.642 89.2979 207.548 89.662 210.047 89.9142C210.047 90.6994 210.051 91.4866 210.058 92.2778C202.432 92.2799 194.807 92.284 187.184 92.2799C183.514 92.2087 179.847 92.0033 176.176 92.0663C176.178 91.4154 176.233 90.8011 176.257 90.1604C178.965 90.2946 181.761 89.3732 183.667 87.1499C184.703 85.8888 185.404 84.3083 185.784 82.6607C186.266 75.517 185.964 68.3489 186.092 61.191C184.271 61.1564 182.458 61.0974 180.646 60.955C179.334 67.6614 177.814 74.3149 176.495 81.0212C175.704 84.6277 175.066 88.2768 174.215 91.8649C157.006 91.8812 139.799 91.8731 122.591 91.869C122.593 91.3849 122.597 90.4187 122.597 89.9346C124.987 89.7942 127.693 89.7312 129.592 87.8619C131.409 86.3546 132.035 83.7001 132.079 81.2938C132.178 76.1964 132.075 71.097 132.106 65.9996C129.599 66.026 127.107 66.2742 124.613 66.4837C122.365 74.7197 120.388 83.0492 118.266 91.3279C117.367 88.7975 116.897 86.1166 116.185 83.5211C114.894 78.7512 113.706 73.9487 112.436 69.1748C109.357 69.7036 106.307 70.4501 103.2 70.7634C103.176 75.0126 103.192 79.2679 103.474 83.5069C103.62 85.5227 104.596 87.5445 106.328 88.3785C108.91 89.8614 111.917 89.1332 114.68 89.2857C114.654 90.1461 114.612 91.0045 114.559 91.8649C106.38 91.8812 98.2025 91.871 90.0234 91.871V89.8532C92.6729 89.6437 95.778 90.5713 98.0524 88.5819C100.405 86.914 101.267 83.633 101.139 80.6856C101.039 77.7443 100.965 74.8031 100.987 71.8618C97.3589 72.1791 93.747 72.7791 90.1679 73.5277C87.7563 74.3169 85.2257 74.5793 82.8598 75.5414C78.2214 76.9144 73.5701 78.2386 68.8859 79.394C68.7926 81.961 68.6535 84.8616 70.3589 86.8855C72.4192 89.4647 75.7201 89.6722 78.5928 89.9366C78.6386 90.4187 78.7337 91.3808 78.7795 91.8629C67.4623 91.8853 56.1452 91.871 44.8281 91.869C44.8263 91.0615 44.8281 90.256 44.8281 89.4525C47.538 89.182 50.9194 90.0627 52.9358 87.4632C53.9349 86.5173 53.9971 84.9999 54.2368 83.6696C50.4473 84.7233 46.7512 86.1675 42.9361 87.1215C39.9353 88.0714 36.9418 89.062 34.0069 90.2417C30.9694 91.5924 27.707 92.0419 24.5085 92.6745C21.8956 93.0711 19.0128 93.1708 16.4054 92.5992C14.9006 91.78 14.1048 91.408 13.4472 91.0232C10.408 88.7288 8.13758 87.2415 5.96016 83.8364C3.49546 79.9106 2.07007 75.1204 2.19449 70.3138C2.2073 67.1163 1.98773 63.9228 2.00054 60.7272C2.58973 60.7394 3.18257 60.776 3.77358 60.8065C3.85226 64.2482 3.93277 67.6899 4.04256 71.1315C4.02792 72.4923 4.37009 73.8043 4.66285 75.1163C5.51918 78.4176 6.59509 81.8166 8.80179 84.3266C10.3919 86.3261 12.5528 87.7541 14.915 88.2748C17.9671 88.9277 21.3668 88.9745 24.1133 87.1479C26.384 85.838 27.6704 83.2058 28.4663 80.6104C29.5312 77.1728 29.244 73.4748 29.2824 69.905C29.211 60.4404 29.3849 50.9718 29.2001 41.5092C28.5615 42.7256 28.2778 44.1189 27.7179 45.376C26.5048 48.297 24.4536 50.8741 21.8096 52.2492C18.8582 53.3313 15.6909 52.8391 12.6443 53.0689C11.153 53.1971 9.69655 54.2771 9.12932 55.8312C8.69749 57.2978 8.52001 58.8518 7.99669 60.2919C7.13304 55.7763 6.4542 50.8497 8.11929 46.4602C9.21898 43.2199 11.9783 41.1126 14.8217 40.0101C17.753 38.8039 20.9094 39.0297 23.9742 38.9626C26.2285 38.8568 28.5322 37.1807 28.9896 34.6259C29.5788 30.9706 29.1616 27.2198 29.2897 23.5279C29.222 19.9703 29.4215 16.0507 27.7088 12.8694C26.7555 10.8963 24.7409 10.042 22.9276 9.42769C20.6697 8.70763 18.194 9.26293 16.2581 10.697C14.4082 11.893 13.0432 13.7583 11.4806 15.3448C10.2546 16.5958 9.69472 18.3716 9.13481 20.0598C7.26112 26.1356 5.83939 32.4596 5.60518 38.8995C5.12578 38.932 4.64638 38.9646 4.16699 38.9992C3.88703 34.1194 4.07001 29.2274 4.02609 24.3416C4.0572 17.2284 3.95656 10.1132 4.07001 3ZM148.757 13.7542C147.919 15.4282 147.401 17.322 147.471 19.2523C147.485 33.1532 147.467 47.0541 147.485 60.955C152.653 60.2757 157.875 60.1882 163.024 59.3176C163.024 46.3686 163.057 33.4197 163.013 20.4728C162.989 17.0209 162.144 13.1094 159.425 11.059C156.063 8.28454 150.858 9.90367 148.757 13.7542ZM69.3488 10.343C69.3653 20.5724 68.9664 30.7937 68.9682 41.0231C68.8237 46.0269 68.7066 51.0328 68.8566 56.0387C70.884 56.0387 72.9773 56.236 74.9461 55.5729C76.4227 55.0603 77.3285 53.2804 77.2059 51.6044C77.2461 39.7375 77.1821 27.8687 77.2333 15.9998C77.1144 14.5515 77.5352 12.7188 76.3514 11.6733C74.5253 9.56195 71.6617 10.2271 69.3488 10.343ZM269.838 20.4117C267.946 31.4792 266.159 42.569 264.269 53.6364C267.802 53.6323 271.337 53.6405 274.876 53.6242C274.695 51.5678 274.29 49.5499 273.966 47.5179C272.729 38.4561 271.145 29.4593 269.838 20.4117ZM103.461 32.8034C103.284 44.719 103.414 56.6387 103.394 68.5544C106.305 67.9543 109.221 67.3848 112.112 66.6769C110.896 62.6169 110.209 58.3718 108.81 54.3789C108.442 52.9997 108.358 51.5454 107.94 50.1785C106.44 44.3895 104.958 38.5944 103.461 32.8034ZM128.672 48.3864C127.382 53.5937 126.086 58.7989 124.791 64.0041C127.217 63.7234 129.645 63.461 132.062 63.0929C132.15 53.4127 132.117 43.7284 132.077 34.0462C130.802 38.7836 129.784 43.6003 128.672 48.3864ZM184.655 41.6557C183.554 47.3511 182.218 52.9916 181.257 58.7196C182.851 58.7175 184.447 58.7013 186.044 58.6525C186.099 50.9189 186.154 43.1792 186.006 35.4477C185.424 37.4777 185.155 39.5992 184.655 41.6557ZM317.594 41.9791C315.528 43.5209 314.675 46.4988 314.719 49.1533C314.71 57.9629 314.714 66.7766 314.73 75.5882C317.272 76.3327 319.831 77.0121 322.391 77.6955C322.419 65.4442 322.4 53.1909 322.4 40.9376C320.755 40.5146 318.997 40.9804 317.594 41.9791ZM337.595 40.958C337.589 44.6132 337.536 48.2685 337.679 51.9217C337.924 58.384 337.633 64.8564 337.847 71.3227C338.025 75.2139 337.898 79.1112 338.027 83.0045C341.386 84.3856 344.658 86.0312 348.037 87.3655C347.23 85.3213 345.659 83.5374 345.505 81.2287C345.197 79.3024 344.901 77.3619 344.914 75.4011C344.875 66.5833 344.949 57.7656 344.901 48.9479C344.925 46.7226 344.431 44.3651 343.044 42.687C341.615 41.0922 339.494 40.9275 337.595 40.958ZM263.584 57.611C263.195 59.5047 263.017 61.4432 262.733 63.3573C267.308 64.1852 271.879 65.0679 276.486 65.666C276.085 62.6881 275.675 59.7102 275.546 56.6997C272.001 56.8442 268.479 56.358 264.946 56.2889C263.956 55.6868 263.709 56.9642 263.584 57.611ZM177.089 60.7557C177.148 61.9985 177.212 63.2434 177.347 64.4821C177.827 63.2434 178.233 61.97 178.747 60.7455C178.207 60.7557 177.605 60.7333 177.089 60.7557ZM147.482 63.4244C147.476 68.772 147.474 74.1196 147.465 79.4672C147.526 81.0274 147.357 82.7014 148.034 84.1415C148.783 85.9824 149.767 88.0409 151.59 88.7772C153.798 89.8898 156.404 89.957 158.685 89.0518C160.307 88.4151 161.62 86.9648 162.382 85.2704C163.071 83.3726 163.017 81.2674 163.042 79.2618C163.027 73.487 163.035 67.7123 163.026 61.9375C157.844 62.4216 152.667 62.9932 147.482 63.4244ZM242.439 63.3634C242.745 68.5218 242.573 73.6945 242.624 78.8611C242.621 80.5453 242.879 82.2234 243.283 83.8466C243.931 86.4258 245.72 88.6409 247.991 89.5624C250.34 90.3658 253.332 90.4512 255.178 88.3378C257.176 85.7545 257.347 82.2112 257.925 79.0238C258.459 74.5244 259.519 70.1287 260.005 65.6212C256.108 64.5574 252.09 64.1506 248.099 63.8373C246.216 63.6176 244.335 63.3308 242.439 63.3634ZM294.083 72.6693C295.14 77.8481 295.975 83.0818 296.965 88.2768C297.344 89.1413 298.407 89.0416 299.095 89.2532C299.991 84.4609 299.362 79.5181 299.508 74.6627C297.709 73.965 295.92 73.2246 294.083 72.6693Z"/>
</mask>
<path d="M4.07001 3C4.59149 3.05085 5.10932 3.12204 5.62714 3.19934C5.80829 5.2741 6.37003 7.37124 7.55572 9.01885C8.34435 9.92401 9.45685 10.5607 10.6133 10.5078C12.0551 10.5729 13.6159 10.6705 14.8986 9.80197C17.9909 7.89197 21.5406 7.04172 25.0666 7.09257C27.8149 7.29394 30.6401 7.45871 33.1816 8.76255C34.2336 9.49535 35.8001 10.6369 36.0579 10.9292C39.1264 13.5186 41.0441 16.2581 42.6635 20.249C44.2499 23.8351 44.9855 27.8748 44.8409 31.8677C44.8135 43.3948 44.8336 54.922 44.8336 66.4491C44.7915 72.9805 42.894 79.7174 38.6618 84.408C37.8128 85.3132 36.9089 86.1593 36.1605 87.1723C42.2317 85.7912 48.1345 83.6615 54.0941 81.8003C54.2551 61.0893 54.1014 40.3742 54.1727 19.6612C54.3356 16.8094 53.5964 13.8091 51.794 11.716C49.8655 9.58839 46.9927 9.4338 44.4512 9.23853C44.4329 8.78493 44.4164 8.33336 44.4091 7.88179C55.1004 7.83704 65.7918 7.89196 76.4849 7.85128C80.58 7.79229 84.9147 8.66695 88.2668 11.4414C89.4909 12.4727 90.4753 13.8355 91.1761 15.3509C92.2136 17.8529 92.4167 20.6314 92.6857 23.3327C92.94 30.2058 92.5997 37.0892 92.8614 43.9623C93.0919 47.107 92.263 50.4144 90.3747 52.8065C88.7005 55.282 86.2065 56.8157 83.6979 58.0199C82.5268 58.5894 81.2057 58.4613 79.9615 58.5284C76.302 58.5365 72.6424 58.4938 68.9829 58.5182C68.9811 64.5574 68.9719 70.5986 68.9865 76.6398C71.991 75.8852 74.9479 74.9068 77.967 74.2071C84.0181 72.9093 90.0271 71.3309 96.1348 70.381C97.906 69.962 99.712 69.785 101.491 69.4188C101.62 56.1566 101.529 42.8924 101.54 29.6282C101.335 25.2691 101.491 20.8918 101.201 16.5409C100.568 14.2485 99.121 12.2246 97.2967 10.9594C96.2226 10.1966 94.9034 10.0806 93.6829 9.82231C93.6079 9.30972 93.5311 8.79306 93.4707 8.28251C100.06 8.26624 106.647 8.26217 113.236 8.28454C117.25 23.3998 120.952 38.6188 125.065 53.7035C125.794 50.5548 126.443 47.3714 127.418 44.302C127.801 43.2138 127.806 42.0238 128.117 40.9132C130.205 32.2582 132.168 23.5646 134.21 14.8953C134.811 12.5765 135.343 10.2352 135.826 7.88179C152.192 7.88179 168.561 7.80043 184.926 7.92248C184.904 8.55914 184.857 9.19581 184.793 9.83044C182.613 10.2698 180.171 10.5993 178.643 12.6029C177.349 14.2424 177.113 16.5083 177.159 18.6055C177.073 32.0426 177.141 45.4838 177.122 58.923C177.642 58.9067 178.235 58.9271 178.773 58.921C180.196 52.7841 181.17 46.5273 182.619 40.3986C182.932 39.3572 183.078 38.273 183.239 37.1949C185.157 27.4029 187.263 17.6596 189.233 7.88179C196.43 7.84518 203.626 7.87162 210.823 7.86552C210.984 8.6283 211.064 9.40735 211.143 10.1884C208.472 10.518 205.701 11.1831 203.487 12.969C202.432 13.7806 201.819 15.1252 201.753 16.5409C201.465 21.3047 201.742 26.0828 201.621 30.8527C201.304 40.0671 201.513 49.2916 201.458 58.5121C210.003 58.3473 218.537 58.7887 227.071 59.1427C227.071 42.6788 227.079 26.217 227.068 9.75518C225.47 9.64127 223.834 10.2657 222.841 11.7079C220.793 14.5373 219.763 18.0624 218.879 21.5101C217.086 28.6762 216.16 36.064 215.481 43.4497C214.852 47.6908 214.863 52.0031 214.471 56.2726C213.877 56.2584 213.374 56.2827 212.803 56.2766C212.799 40.1403 212.799 24.0039 212.803 7.86755C227.318 7.86552 241.832 7.86349 256.348 7.86755C256.362 14.9868 256.329 22.1041 256.357 29.2234C256.631 38.2771 256.562 47.3409 256.474 56.3987C255.918 56.4231 255.416 56.4638 254.882 56.4943C254.593 50.1459 254.413 43.7833 253.581 37.4838C253.155 32.5613 252.295 27.71 251.266 22.9035C250.384 19.2869 249.371 15.6154 247.416 12.5154C246.39 10.6766 244.611 9.33616 242.643 9.19378C242.533 17.2935 242.804 25.3993 242.458 33.4929C242.418 42.7053 242.452 51.9196 242.447 61.132C248.459 61.2622 254.426 62.1348 260.36 63.162C262.847 49.6476 265.194 36.1006 267.376 22.519C267.828 19.9968 268.197 17.4196 268.003 14.8424C267.851 13.0768 267.002 11.2665 265.427 10.6197C263.088 9.76332 260.567 9.87113 258.168 10.3227C258.091 9.64127 258.024 8.95782 257.965 8.27641C265.855 8.2642 273.747 8.27844 281.639 8.26827C284.828 24.6467 287.792 41.0861 290.934 57.4788C291.529 61.0913 292.427 64.6286 292.967 68.2533C293.119 68.8188 293.075 69.6446 293.682 69.8806C295.602 70.7146 297.556 71.4692 299.532 72.1323C299.521 67.3217 299.611 62.507 299.382 57.7025C299.349 55.6115 299.137 53.5184 299.239 51.4254C299.523 49.0679 300.171 46.7592 301.131 44.6336C302.249 42.3554 304.03 40.4413 306.218 39.4812C309.619 37.974 313.414 38.2384 316.962 38.8893C315.096 37.6485 313.539 35.5738 313.334 33.1024C312.926 28.487 312.9 23.8392 312.862 19.2035C311.746 20.7901 310.864 22.7163 309.151 23.6093C306.838 24.7057 304.136 24.9071 301.775 23.8819C299.612 23.2086 297.905 21.3372 296.886 19.1689C296.363 17.3606 295.697 15.3448 296.518 13.4918C296.95 11.655 298.099 10.0664 299.603 9.17954C301.795 7.91027 304.339 7.40379 306.794 7.73331C308.642 8.19708 310.498 8.85002 312.128 9.94028C313.306 11.1546 314.693 12.6517 314.681 14.58C314.929 20.6782 315.175 26.7804 315.301 32.8827C315.535 34.2455 316.141 35.649 317.25 36.3874C318.558 37.5672 320.223 37.9679 321.822 38.3889C322.124 30.3218 322.162 22.2343 321.87 14.1651C321.93 12.967 321.584 11.7079 320.814 10.8536C319.162 9.16733 316.745 9.82231 314.724 9.46228C314.723 9.1653 314.721 8.57135 314.719 8.27437C324.878 8.30488 335.037 8.19911 345.197 8.32929C345.216 8.64457 345.254 9.27311 345.272 9.58839C343.494 9.78163 341.615 10.0867 340.178 11.3723C337.803 13.1785 337.221 16.6731 337.401 19.6612C337.637 25.981 337.595 32.307 337.6 38.633C339.567 38.3239 341.615 37.7258 343.084 36.1454C344.396 34.8191 344.874 32.7688 344.888 30.8567C344.899 26.7174 345.099 22.5821 345.093 18.4407C345.122 16.1544 345.152 13.685 346.396 11.7486C347.902 8.78696 351.146 7.57465 354.057 7.66415C356.458 7.70279 359.109 7.74755 361.17 9.32192C361.887 9.95046 362.772 10.4691 363.146 11.4496C363.572 12.5744 364.029 13.6871 364.441 14.82C365.01 16.3761 364.05 17.9363 363.371 19.2381C361.446 22.9584 357.283 24.9904 353.51 24.13C351.979 23.7537 350.425 23.1638 349.254 21.9617C348.389 21.1887 347.801 20.131 347.17 19.1364C347.005 23.6947 347.638 28.2836 347.042 32.8196C346.487 35.0246 344.945 36.6498 343.562 38.2506C345.659 38.4988 347.726 39.0114 349.851 38.9524C351.743 38.8975 353.753 39.1822 355.353 40.3986C357.792 42.154 359.375 45.0607 360.066 48.1525C361.376 52.6092 360.952 57.3628 361.012 61.9721C360.884 68.7456 361.426 75.513 361.098 82.2864C361.047 84.4446 361.695 86.7777 363.305 88.1121C365.149 89.7536 367.555 89.9061 369.771 90.4757C369.877 91.0086 369.855 91.4968 370 92.046C366.71 92.0216 363.431 92.2494 360.156 92.5626C356.913 92.9959 353.728 91.9626 350.647 90.976C346.921 89.4566 343.252 87.75 339.494 86.3322C339.946 87.4815 340.59 88.6226 341.611 89.2389C342.857 90.1604 344.4 90.2661 345.81 90.6913C345.809 91.21 345.814 91.7307 345.829 92.2534C335.461 92.7172 325.081 92.3857 314.71 92.4813C314.648 91.869 314.752 91.3259 314.739 90.7319C316.69 90.1075 318.713 89.2104 320.005 87.3839C321.392 85.4311 321.873 82.9272 322.082 80.5046C319.786 79.5303 317.436 78.6698 315.004 78.2427C314.47 83.2974 312.558 88.7609 308.291 91.2567C305.349 93.1728 301.863 92.6684 298.615 92.6806C289.73 92.2738 280.832 92.583 271.941 92.4752C271.858 91.8161 271.826 91.1876 271.741 90.5387C273.73 90.2743 275.91 90.0749 277.47 88.5046C279.013 86.9791 279.183 84.4161 278.878 82.2925C278.239 77.7016 277.511 73.1188 277.201 68.4791C272.115 67.5149 266.962 67.0695 261.884 66.0219C260.964 71.6929 260.038 77.3619 259.149 83.0391C259.032 84.0296 258.858 85.0447 258.981 86.0434C259.348 87.6015 260.351 88.9664 261.722 89.5542C263.789 90.4553 266.067 90.256 268.241 90.4797C268.236 91.0086 268.237 91.5415 268.245 92.0744C262.752 92.1131 257.261 92.0053 251.773 92.1253C245.803 92.4752 239.821 92.1334 233.851 92.3429C227.812 92.6277 221.767 92.4263 215.729 92.4813C215.729 91.9849 215.73 90.9923 215.732 90.496C218.398 90.2499 221.185 90.4289 223.728 89.3834C225.49 88.2687 226.806 86.1207 226.961 83.8527C227.316 79.5547 227.221 75.2363 227.302 70.9302C227.47 67.7428 227.454 64.5513 227.439 61.3639C221.154 61.5103 214.876 61.0689 208.592 61.1584C206.15 61.1727 203.712 61.0059 201.273 60.9388C201.147 67.2526 201.581 73.5582 201.444 79.874C201.436 82.262 201.295 85.1097 202.977 86.9282C204.642 89.2979 207.548 89.662 210.047 89.9142C210.047 90.6994 210.051 91.4866 210.058 92.2778C202.432 92.2799 194.807 92.284 187.184 92.2799C183.514 92.2087 179.847 92.0033 176.176 92.0663C176.178 91.4154 176.233 90.8011 176.257 90.1604C178.965 90.2946 181.761 89.3732 183.667 87.1499C184.703 85.8888 185.404 84.3083 185.784 82.6607C186.266 75.517 185.964 68.3489 186.092 61.191C184.271 61.1564 182.458 61.0974 180.646 60.955C179.334 67.6614 177.814 74.3149 176.495 81.0212C175.704 84.6277 175.066 88.2768 174.215 91.8649C157.006 91.8812 139.799 91.8731 122.591 91.869C122.593 91.3849 122.597 90.4187 122.597 89.9346C124.987 89.7942 127.693 89.7312 129.592 87.8619C131.409 86.3546 132.035 83.7001 132.079 81.2938C132.178 76.1964 132.075 71.097 132.106 65.9996C129.599 66.026 127.107 66.2742 124.613 66.4837C122.365 74.7197 120.388 83.0492 118.266 91.3279C117.367 88.7975 116.897 86.1166 116.185 83.5211C114.894 78.7512 113.706 73.9487 112.436 69.1748C109.357 69.7036 106.307 70.4501 103.2 70.7634C103.176 75.0126 103.192 79.2679 103.474 83.5069C103.62 85.5227 104.596 87.5445 106.328 88.3785C108.91 89.8614 111.917 89.1332 114.68 89.2857C114.654 90.1461 114.612 91.0045 114.559 91.8649C106.38 91.8812 98.2025 91.871 90.0234 91.871V89.8532C92.6729 89.6437 95.778 90.5713 98.0524 88.5819C100.405 86.914 101.267 83.633 101.139 80.6856C101.039 77.7443 100.965 74.8031 100.987 71.8618C97.3589 72.1791 93.747 72.7791 90.1679 73.5277C87.7563 74.3169 85.2257 74.5793 82.8598 75.5414C78.2214 76.9144 73.5701 78.2386 68.8859 79.394C68.7926 81.961 68.6535 84.8616 70.3589 86.8855C72.4192 89.4647 75.7201 89.6722 78.5928 89.9366C78.6386 90.4187 78.7337 91.3808 78.7795 91.8629C67.4623 91.8853 56.1452 91.871 44.8281 91.869C44.8263 91.0615 44.8281 90.256 44.8281 89.4525C47.538 89.182 50.9194 90.0627 52.9358 87.4632C53.9349 86.5173 53.9971 84.9999 54.2368 83.6696C50.4473 84.7233 46.7512 86.1675 42.9361 87.1215C39.9353 88.0714 36.9418 89.062 34.0069 90.2417C30.9694 91.5924 27.707 92.0419 24.5085 92.6745C21.8956 93.0711 19.0128 93.1708 16.4054 92.5992C14.9006 91.78 14.1048 91.408 13.4472 91.0232C10.408 88.7288 8.13758 87.2415 5.96016 83.8364C3.49546 79.9106 2.07007 75.1204 2.19449 70.3138C2.2073 67.1163 1.98773 63.9228 2.00054 60.7272C2.58973 60.7394 3.18257 60.776 3.77358 60.8065C3.85226 64.2482 3.93277 67.6899 4.04256 71.1315C4.02792 72.4923 4.37009 73.8043 4.66285 75.1163C5.51918 78.4176 6.59509 81.8166 8.80179 84.3266C10.3919 86.3261 12.5528 87.7541 14.915 88.2748C17.9671 88.9277 21.3668 88.9745 24.1133 87.1479C26.384 85.838 27.6704 83.2058 28.4663 80.6104C29.5312 77.1728 29.244 73.4748 29.2824 69.905C29.211 60.4404 29.3849 50.9718 29.2001 41.5092C28.5615 42.7256 28.2778 44.1189 27.7179 45.376C26.5048 48.297 24.4536 50.8741 21.8096 52.2492C18.8582 53.3313 15.6909 52.8391 12.6443 53.0689C11.153 53.1971 9.69655 54.2771 9.12932 55.8312C8.69749 57.2978 8.52001 58.8518 7.99669 60.2919C7.13304 55.7763 6.4542 50.8497 8.11929 46.4602C9.21898 43.2199 11.9783 41.1126 14.8217 40.0101C17.753 38.8039 20.9094 39.0297 23.9742 38.9626C26.2285 38.8568 28.5322 37.1807 28.9896 34.6259C29.5788 30.9706 29.1616 27.2198 29.2897 23.5279C29.222 19.9703 29.4215 16.0507 27.7088 12.8694C26.7555 10.8963 24.7409 10.042 22.9276 9.42769C20.6697 8.70763 18.194 9.26293 16.2581 10.697C14.4082 11.893 13.0432 13.7583 11.4806 15.3448C10.2546 16.5958 9.69472 18.3716 9.13481 20.0598C7.26112 26.1356 5.83939 32.4596 5.60518 38.8995C5.12578 38.932 4.64638 38.9646 4.16699 38.9992C3.88703 34.1194 4.07001 29.2274 4.02609 24.3416C4.0572 17.2284 3.95656 10.1132 4.07001 3ZM148.757 13.7542C147.919 15.4282 147.401 17.322 147.471 19.2523C147.485 33.1532 147.467 47.0541 147.485 60.955C152.653 60.2757 157.875 60.1882 163.024 59.3176C163.024 46.3686 163.057 33.4197 163.013 20.4728C162.989 17.0209 162.144 13.1094 159.425 11.059C156.063 8.28454 150.858 9.90367 148.757 13.7542ZM69.3488 10.343C69.3653 20.5724 68.9664 30.7937 68.9682 41.0231C68.8237 46.0269 68.7066 51.0328 68.8566 56.0387C70.884 56.0387 72.9773 56.236 74.9461 55.5729C76.4227 55.0603 77.3285 53.2804 77.2059 51.6044C77.2461 39.7375 77.1821 27.8687 77.2333 15.9998C77.1144 14.5515 77.5352 12.7188 76.3514 11.6733C74.5253 9.56195 71.6617 10.2271 69.3488 10.343ZM269.838 20.4117C267.946 31.4792 266.159 42.569 264.269 53.6364C267.802 53.6323 271.337 53.6405 274.876 53.6242C274.695 51.5678 274.29 49.5499 273.966 47.5179C272.729 38.4561 271.145 29.4593 269.838 20.4117ZM103.461 32.8034C103.284 44.719 103.414 56.6387 103.394 68.5544C106.305 67.9543 109.221 67.3848 112.112 66.6769C110.896 62.6169 110.209 58.3718 108.81 54.3789C108.442 52.9997 108.358 51.5454 107.94 50.1785C106.44 44.3895 104.958 38.5944 103.461 32.8034ZM128.672 48.3864C127.382 53.5937 126.086 58.7989 124.791 64.0041C127.217 63.7234 129.645 63.461 132.062 63.0929C132.15 53.4127 132.117 43.7284 132.077 34.0462C130.802 38.7836 129.784 43.6003 128.672 48.3864ZM184.655 41.6557C183.554 47.3511 182.218 52.9916 181.257 58.7196C182.851 58.7175 184.447 58.7013 186.044 58.6525C186.099 50.9189 186.154 43.1792 186.006 35.4477C185.424 37.4777 185.155 39.5992 184.655 41.6557ZM317.594 41.9791C315.528 43.5209 314.675 46.4988 314.719 49.1533C314.71 57.9629 314.714 66.7766 314.73 75.5882C317.272 76.3327 319.831 77.0121 322.391 77.6955C322.419 65.4442 322.4 53.1909 322.4 40.9376C320.755 40.5146 318.997 40.9804 317.594 41.9791ZM337.595 40.958C337.589 44.6132 337.536 48.2685 337.679 51.9217C337.924 58.384 337.633 64.8564 337.847 71.3227C338.025 75.2139 337.898 79.1112 338.027 83.0045C341.386 84.3856 344.658 86.0312 348.037 87.3655C347.23 85.3213 345.659 83.5374 345.505 81.2287C345.197 79.3024 344.901 77.3619 344.914 75.4011C344.875 66.5833 344.949 57.7656 344.901 48.9479C344.925 46.7226 344.431 44.3651 343.044 42.687C341.615 41.0922 339.494 40.9275 337.595 40.958ZM263.584 57.611C263.195 59.5047 263.017 61.4432 262.733 63.3573C267.308 64.1852 271.879 65.0679 276.486 65.666C276.085 62.6881 275.675 59.7102 275.546 56.6997C272.001 56.8442 268.479 56.358 264.946 56.2889C263.956 55.6868 263.709 56.9642 263.584 57.611ZM177.089 60.7557C177.148 61.9985 177.212 63.2434 177.347 64.4821C177.827 63.2434 178.233 61.97 178.747 60.7455C178.207 60.7557 177.605 60.7333 177.089 60.7557ZM147.482 63.4244C147.476 68.772 147.474 74.1196 147.465 79.4672C147.526 81.0274 147.357 82.7014 148.034 84.1415C148.783 85.9824 149.767 88.0409 151.59 88.7772C153.798 89.8898 156.404 89.957 158.685 89.0518C160.307 88.4151 161.62 86.9648 162.382 85.2704C163.071 83.3726 163.017 81.2674 163.042 79.2618C163.027 73.487 163.035 67.7123 163.026 61.9375C157.844 62.4216 152.667 62.9932 147.482 63.4244ZM242.439 63.3634C242.745 68.5218 242.573 73.6945 242.624 78.8611C242.621 80.5453 242.879 82.2234 243.283 83.8466C243.931 86.4258 245.72 88.6409 247.991 89.5624C250.34 90.3658 253.332 90.4512 255.178 88.3378C257.176 85.7545 257.347 82.2112 257.925 79.0238C258.459 74.5244 259.519 70.1287 260.005 65.6212C256.108 64.5574 252.09 64.1506 248.099 63.8373C246.216 63.6176 244.335 63.3308 242.439 63.3634ZM294.083 72.6693C295.14 77.8481 295.975 83.0818 296.965 88.2768C297.344 89.1413 298.407 89.0416 299.095 89.2532C299.991 84.4609 299.362 79.5181 299.508 74.6627C297.709 73.965 295.92 73.2246 294.083 72.6693Z" fill="#03463E"/>
<path d="M4.07001 3C4.59149 3.05085 5.10932 3.12204 5.62714 3.19934C5.80829 5.2741 6.37003 7.37124 7.55572 9.01885C8.34435 9.92401 9.45685 10.5607 10.6133 10.5078C12.0551 10.5729 13.6159 10.6705 14.8986 9.80197C17.9909 7.89197 21.5406 7.04172 25.0666 7.09257C27.8149 7.29394 30.6401 7.45871 33.1816 8.76255C34.2336 9.49535 35.8001 10.6369 36.0579 10.9292C39.1264 13.5186 41.0441 16.2581 42.6635 20.249C44.2499 23.8351 44.9855 27.8748 44.8409 31.8677C44.8135 43.3948 44.8336 54.922 44.8336 66.4491C44.7915 72.9805 42.894 79.7174 38.6618 84.408C37.8128 85.3132 36.9089 86.1593 36.1605 87.1723C42.2317 85.7912 48.1345 83.6615 54.0941 81.8003C54.2551 61.0893 54.1014 40.3742 54.1727 19.6612C54.3356 16.8094 53.5964 13.8091 51.794 11.716C49.8655 9.58839 46.9927 9.4338 44.4512 9.23853C44.4329 8.78493 44.4164 8.33336 44.4091 7.88179C55.1004 7.83704 65.7918 7.89196 76.4849 7.85128C80.58 7.79229 84.9147 8.66695 88.2668 11.4414C89.4909 12.4727 90.4753 13.8355 91.1761 15.3509C92.2136 17.8529 92.4167 20.6314 92.6857 23.3327C92.94 30.2058 92.5997 37.0892 92.8614 43.9623C93.0919 47.107 92.263 50.4144 90.3747 52.8065C88.7005 55.282 86.2065 56.8157 83.6979 58.0199C82.5268 58.5894 81.2057 58.4613 79.9615 58.5284C76.302 58.5365 72.6424 58.4938 68.9829 58.5182C68.9811 64.5574 68.9719 70.5986 68.9865 76.6398C71.991 75.8852 74.9479 74.9068 77.967 74.2071C84.0181 72.9093 90.0271 71.3309 96.1348 70.381C97.906 69.962 99.712 69.785 101.491 69.4188C101.62 56.1566 101.529 42.8924 101.54 29.6282C101.335 25.2691 101.491 20.8918 101.201 16.5409C100.568 14.2485 99.121 12.2246 97.2967 10.9594C96.2226 10.1966 94.9034 10.0806 93.6829 9.82231C93.6079 9.30972 93.5311 8.79306 93.4707 8.28251C100.06 8.26624 106.647 8.26217 113.236 8.28454C117.25 23.3998 120.952 38.6188 125.065 53.7035C125.794 50.5548 126.443 47.3714 127.418 44.302C127.801 43.2138 127.806 42.0238 128.117 40.9132C130.205 32.2582 132.168 23.5646 134.21 14.8953C134.811 12.5765 135.343 10.2352 135.826 7.88179C152.192 7.88179 168.561 7.80043 184.926 7.92248C184.904 8.55914 184.857 9.19581 184.793 9.83044C182.613 10.2698 180.171 10.5993 178.643 12.6029C177.349 14.2424 177.113 16.5083 177.159 18.6055C177.073 32.0426 177.141 45.4838 177.122 58.923C177.642 58.9067 178.235 58.9271 178.773 58.921C180.196 52.7841 181.17 46.5273 182.619 40.3986C182.932 39.3572 183.078 38.273 183.239 37.1949C185.157 27.4029 187.263 17.6596 189.233 7.88179C196.43 7.84518 203.626 7.87162 210.823 7.86552C210.984 8.6283 211.064 9.40735 211.143 10.1884C208.472 10.518 205.701 11.1831 203.487 12.969C202.432 13.7806 201.819 15.1252 201.753 16.5409C201.465 21.3047 201.742 26.0828 201.621 30.8527C201.304 40.0671 201.513 49.2916 201.458 58.5121C210.003 58.3473 218.537 58.7887 227.071 59.1427C227.071 42.6788 227.079 26.217 227.068 9.75518C225.47 9.64127 223.834 10.2657 222.841 11.7079C220.793 14.5373 219.763 18.0624 218.879 21.5101C217.086 28.6762 216.16 36.064 215.481 43.4497C214.852 47.6908 214.863 52.0031 214.471 56.2726C213.877 56.2584 213.374 56.2827 212.803 56.2766C212.799 40.1403 212.799 24.0039 212.803 7.86755C227.318 7.86552 241.832 7.86349 256.348 7.86755C256.362 14.9868 256.329 22.1041 256.357 29.2234C256.631 38.2771 256.562 47.3409 256.474 56.3987C255.918 56.4231 255.416 56.4638 254.882 56.4943C254.593 50.1459 254.413 43.7833 253.581 37.4838C253.155 32.5613 252.295 27.71 251.266 22.9035C250.384 19.2869 249.371 15.6154 247.416 12.5154C246.39 10.6766 244.611 9.33616 242.643 9.19378C242.533 17.2935 242.804 25.3993 242.458 33.4929C242.418 42.7053 242.452 51.9196 242.447 61.132C248.459 61.2622 254.426 62.1348 260.36 63.162C262.847 49.6476 265.194 36.1006 267.376 22.519C267.828 19.9968 268.197 17.4196 268.003 14.8424C267.851 13.0768 267.002 11.2665 265.427 10.6197C263.088 9.76332 260.567 9.87113 258.168 10.3227C258.091 9.64127 258.024 8.95782 257.965 8.27641C265.855 8.2642 273.747 8.27844 281.639 8.26827C284.828 24.6467 287.792 41.0861 290.934 57.4788C291.529 61.0913 292.427 64.6286 292.967 68.2533C293.119 68.8188 293.075 69.6446 293.682 69.8806C295.602 70.7146 297.556 71.4692 299.532 72.1323C299.521 67.3217 299.611 62.507 299.382 57.7025C299.349 55.6115 299.137 53.5184 299.239 51.4254C299.523 49.0679 300.171 46.7592 301.131 44.6336C302.249 42.3554 304.03 40.4413 306.218 39.4812C309.619 37.974 313.414 38.2384 316.962 38.8893C315.096 37.6485 313.539 35.5738 313.334 33.1024C312.926 28.487 312.9 23.8392 312.862 19.2035C311.746 20.7901 310.864 22.7163 309.151 23.6093C306.838 24.7057 304.136 24.9071 301.775 23.8819C299.612 23.2086 297.905 21.3372 296.886 19.1689C296.363 17.3606 295.697 15.3448 296.518 13.4918C296.95 11.655 298.099 10.0664 299.603 9.17954C301.795 7.91027 304.339 7.40379 306.794 7.73331C308.642 8.19708 310.498 8.85002 312.128 9.94028C313.306 11.1546 314.693 12.6517 314.681 14.58C314.929 20.6782 315.175 26.7804 315.301 32.8827C315.535 34.2455 316.141 35.649 317.25 36.3874C318.558 37.5672 320.223 37.9679 321.822 38.3889C322.124 30.3218 322.162 22.2343 321.87 14.1651C321.93 12.967 321.584 11.7079 320.814 10.8536C319.162 9.16733 316.745 9.82231 314.724 9.46228C314.723 9.1653 314.721 8.57135 314.719 8.27437C324.878 8.30488 335.037 8.19911 345.197 8.32929C345.216 8.64457 345.254 9.27311 345.272 9.58839C343.494 9.78163 341.615 10.0867 340.178 11.3723C337.803 13.1785 337.221 16.6731 337.401 19.6612C337.637 25.981 337.595 32.307 337.6 38.633C339.567 38.3239 341.615 37.7258 343.084 36.1454C344.396 34.8191 344.874 32.7688 344.888 30.8567C344.899 26.7174 345.099 22.5821 345.093 18.4407C345.122 16.1544 345.152 13.685 346.396 11.7486C347.902 8.78696 351.146 7.57465 354.057 7.66415C356.458 7.70279 359.109 7.74755 361.17 9.32192C361.887 9.95046 362.772 10.4691 363.146 11.4496C363.572 12.5744 364.029 13.6871 364.441 14.82C365.01 16.3761 364.05 17.9363 363.371 19.2381C361.446 22.9584 357.283 24.9904 353.51 24.13C351.979 23.7537 350.425 23.1638 349.254 21.9617C348.389 21.1887 347.801 20.131 347.17 19.1364C347.005 23.6947 347.638 28.2836 347.042 32.8196C346.487 35.0246 344.945 36.6498 343.562 38.2506C345.659 38.4988 347.726 39.0114 349.851 38.9524C351.743 38.8975 353.753 39.1822 355.353 40.3986C357.792 42.154 359.375 45.0607 360.066 48.1525C361.376 52.6092 360.952 57.3628 361.012 61.9721C360.884 68.7456 361.426 75.513 361.098 82.2864C361.047 84.4446 361.695 86.7777 363.305 88.1121C365.149 89.7536 367.555 89.9061 369.771 90.4757C369.877 91.0086 369.855 91.4968 370 92.046C366.71 92.0216 363.431 92.2494 360.156 92.5626C356.913 92.9959 353.728 91.9626 350.647 90.976C346.921 89.4566 343.252 87.75 339.494 86.3322C339.946 87.4815 340.59 88.6226 341.611 89.2389C342.857 90.1604 344.4 90.2661 345.81 90.6913C345.809 91.21 345.814 91.7307 345.829 92.2534C335.461 92.7172 325.081 92.3857 314.71 92.4813C314.648 91.869 314.752 91.3259 314.739 90.7319C316.69 90.1075 318.713 89.2104 320.005 87.3839C321.392 85.4311 321.873 82.9272 322.082 80.5046C319.786 79.5303 317.436 78.6698 315.004 78.2427C314.47 83.2974 312.558 88.7609 308.291 91.2567C305.349 93.1728 301.863 92.6684 298.615 92.6806C289.73 92.2738 280.832 92.583 271.941 92.4752C271.858 91.8161 271.826 91.1876 271.741 90.5387C273.73 90.2743 275.91 90.0749 277.47 88.5046C279.013 86.9791 279.183 84.4161 278.878 82.2925C278.239 77.7016 277.511 73.1188 277.201 68.4791C272.115 67.5149 266.962 67.0695 261.884 66.0219C260.964 71.6929 260.038 77.3619 259.149 83.0391C259.032 84.0296 258.858 85.0447 258.981 86.0434C259.348 87.6015 260.351 88.9664 261.722 89.5542C263.789 90.4553 266.067 90.256 268.241 90.4797C268.236 91.0086 268.237 91.5415 268.245 92.0744C262.752 92.1131 257.261 92.0053 251.773 92.1253C245.803 92.4752 239.821 92.1334 233.851 92.3429C227.812 92.6277 221.767 92.4263 215.729 92.4813C215.729 91.9849 215.73 90.9923 215.732 90.496C218.398 90.2499 221.185 90.4289 223.728 89.3834C225.49 88.2687 226.806 86.1207 226.961 83.8527C227.316 79.5547 227.221 75.2363 227.302 70.9302C227.47 67.7428 227.454 64.5513 227.439 61.3639C221.154 61.5103 214.876 61.0689 208.592 61.1584C206.15 61.1727 203.712 61.0059 201.273 60.9388C201.147 67.2526 201.581 73.5582 201.444 79.874C201.436 82.262 201.295 85.1097 202.977 86.9282C204.642 89.2979 207.548 89.662 210.047 89.9142C210.047 90.6994 210.051 91.4866 210.058 92.2778C202.432 92.2799 194.807 92.284 187.184 92.2799C183.514 92.2087 179.847 92.0033 176.176 92.0663C176.178 91.4154 176.233 90.8011 176.257 90.1604C178.965 90.2946 181.761 89.3732 183.667 87.1499C184.703 85.8888 185.404 84.3083 185.784 82.6607C186.266 75.517 185.964 68.3489 186.092 61.191C184.271 61.1564 182.458 61.0974 180.646 60.955C179.334 67.6614 177.814 74.3149 176.495 81.0212C175.704 84.6277 175.066 88.2768 174.215 91.8649C157.006 91.8812 139.799 91.8731 122.591 91.869C122.593 91.3849 122.597 90.4187 122.597 89.9346C124.987 89.7942 127.693 89.7312 129.592 87.8619C131.409 86.3546 132.035 83.7001 132.079 81.2938C132.178 76.1964 132.075 71.097 132.106 65.9996C129.599 66.026 127.107 66.2742 124.613 66.4837C122.365 74.7197 120.388 83.0492 118.266 91.3279C117.367 88.7975 116.897 86.1166 116.185 83.5211C114.894 78.7512 113.706 73.9487 112.436 69.1748C109.357 69.7036 106.307 70.4501 103.2 70.7634C103.176 75.0126 103.192 79.2679 103.474 83.5069C103.62 85.5227 104.596 87.5445 106.328 88.3785C108.91 89.8614 111.917 89.1332 114.68 89.2857C114.654 90.1461 114.612 91.0045 114.559 91.8649C106.38 91.8812 98.2025 91.871 90.0234 91.871V89.8532C92.6729 89.6437 95.778 90.5713 98.0524 88.5819C100.405 86.914 101.267 83.633 101.139 80.6856C101.039 77.7443 100.965 74.8031 100.987 71.8618C97.3589 72.1791 93.747 72.7791 90.1679 73.5277C87.7563 74.3169 85.2257 74.5793 82.8598 75.5414C78.2214 76.9144 73.5701 78.2386 68.8859 79.394C68.7926 81.961 68.6535 84.8616 70.3589 86.8855C72.4192 89.4647 75.7201 89.6722 78.5928 89.9366C78.6386 90.4187 78.7337 91.3808 78.7795 91.8629C67.4623 91.8853 56.1452 91.871 44.8281 91.869C44.8263 91.0615 44.8281 90.256 44.8281 89.4525C47.538 89.182 50.9194 90.0627 52.9358 87.4632C53.9349 86.5173 53.9971 84.9999 54.2368 83.6696C50.4473 84.7233 46.7512 86.1675 42.9361 87.1215C39.9353 88.0714 36.9418 89.062 34.0069 90.2417C30.9694 91.5924 27.707 92.0419 24.5085 92.6745C21.8956 93.0711 19.0128 93.1708 16.4054 92.5992C14.9006 91.78 14.1048 91.408 13.4472 91.0232C10.408 88.7288 8.13758 87.2415 5.96016 83.8364C3.49546 79.9106 2.07007 75.1204 2.19449 70.3138C2.2073 67.1163 1.98773 63.9228 2.00054 60.7272C2.58973 60.7394 3.18257 60.776 3.77358 60.8065C3.85226 64.2482 3.93277 67.6899 4.04256 71.1315C4.02792 72.4923 4.37009 73.8043 4.66285 75.1163C5.51918 78.4176 6.59509 81.8166 8.80179 84.3266C10.3919 86.3261 12.5528 87.7541 14.915 88.2748C17.9671 88.9277 21.3668 88.9745 24.1133 87.1479C26.384 85.838 27.6704 83.2058 28.4663 80.6104C29.5312 77.1728 29.244 73.4748 29.2824 69.905C29.211 60.4404 29.3849 50.9718 29.2001 41.5092C28.5615 42.7256 28.2778 44.1189 27.7179 45.376C26.5048 48.297 24.4536 50.8741 21.8096 52.2492C18.8582 53.3313 15.6909 52.8391 12.6443 53.0689C11.153 53.1971 9.69655 54.2771 9.12932 55.8312C8.69749 57.2978 8.52001 58.8518 7.99669 60.2919C7.13304 55.7763 6.4542 50.8497 8.11929 46.4602C9.21898 43.2199 11.9783 41.1126 14.8217 40.0101C17.753 38.8039 20.9094 39.0297 23.9742 38.9626C26.2285 38.8568 28.5322 37.1807 28.9896 34.6259C29.5788 30.9706 29.1616 27.2198 29.2897 23.5279C29.222 19.9703 29.4215 16.0507 27.7088 12.8694C26.7555 10.8963 24.7409 10.042 22.9276 9.42769C20.6697 8.70763 18.194 9.26293 16.2581 10.697C14.4082 11.893 13.0432 13.7583 11.4806 15.3448C10.2546 16.5958 9.69472 18.3716 9.13481 20.0598C7.26112 26.1356 5.83939 32.4596 5.60518 38.8995C5.12578 38.932 4.64638 38.9646 4.16699 38.9992C3.88703 34.1194 4.07001 29.2274 4.02609 24.3416C4.0572 17.2284 3.95656 10.1132 4.07001 3ZM148.757 13.7542C147.919 15.4282 147.401 17.322 147.471 19.2523C147.485 33.1532 147.467 47.0541 147.485 60.955C152.653 60.2757 157.875 60.1882 163.024 59.3176C163.024 46.3686 163.057 33.4197 163.013 20.4728C162.989 17.0209 162.144 13.1094 159.425 11.059C156.063 8.28454 150.858 9.90367 148.757 13.7542ZM69.3488 10.343C69.3653 20.5724 68.9664 30.7937 68.9682 41.0231C68.8237 46.0269 68.7066 51.0328 68.8566 56.0387C70.884 56.0387 72.9773 56.236 74.9461 55.5729C76.4227 55.0603 77.3285 53.2804 77.2059 51.6044C77.2461 39.7375 77.1821 27.8687 77.2333 15.9998C77.1144 14.5515 77.5352 12.7188 76.3514 11.6733C74.5253 9.56195 71.6617 10.2271 69.3488 10.343ZM269.838 20.4117C267.946 31.4792 266.159 42.569 264.269 53.6364C267.802 53.6323 271.337 53.6405 274.876 53.6242C274.695 51.5678 274.29 49.5499 273.966 47.5179C272.729 38.4561 271.145 29.4593 269.838 20.4117ZM103.461 32.8034C103.284 44.719 103.414 56.6387 103.394 68.5544C106.305 67.9543 109.221 67.3848 112.112 66.6769C110.896 62.6169 110.209 58.3718 108.81 54.3789C108.442 52.9997 108.358 51.5454 107.94 50.1785C106.44 44.3895 104.958 38.5944 103.461 32.8034ZM128.672 48.3864C127.382 53.5937 126.086 58.7989 124.791 64.0041C127.217 63.7234 129.645 63.461 132.062 63.0929C132.15 53.4127 132.117 43.7284 132.077 34.0462C130.802 38.7836 129.784 43.6003 128.672 48.3864ZM184.655 41.6557C183.554 47.3511 182.218 52.9916 181.257 58.7196C182.851 58.7175 184.447 58.7013 186.044 58.6525C186.099 50.9189 186.154 43.1792 186.006 35.4477C185.424 37.4777 185.155 39.5992 184.655 41.6557ZM317.594 41.9791C315.528 43.5209 314.675 46.4988 314.719 49.1533C314.71 57.9629 314.714 66.7766 314.73 75.5882C317.272 76.3327 319.831 77.0121 322.391 77.6955C322.419 65.4442 322.4 53.1909 322.4 40.9376C320.755 40.5146 318.997 40.9804 317.594 41.9791ZM337.595 40.958C337.589 44.6132 337.536 48.2685 337.679 51.9217C337.924 58.384 337.633 64.8564 337.847 71.3227C338.025 75.2139 337.898 79.1112 338.027 83.0045C341.386 84.3856 344.658 86.0312 348.037 87.3655C347.23 85.3213 345.659 83.5374 345.505 81.2287C345.197 79.3024 344.901 77.3619 344.914 75.4011C344.875 66.5833 344.949 57.7656 344.901 48.9479C344.925 46.7226 344.431 44.3651 343.044 42.687C341.615 41.0922 339.494 40.9275 337.595 40.958ZM263.584 57.611C263.195 59.5047 263.017 61.4432 262.733 63.3573C267.308 64.1852 271.879 65.0679 276.486 65.666C276.085 62.6881 275.675 59.7102 275.546 56.6997C272.001 56.8442 268.479 56.358 264.946 56.2889C263.956 55.6868 263.709 56.9642 263.584 57.611ZM177.089 60.7557C177.148 61.9985 177.212 63.2434 177.347 64.4821C177.827 63.2434 178.233 61.97 178.747 60.7455C178.207 60.7557 177.605 60.7333 177.089 60.7557ZM147.482 63.4244C147.476 68.772 147.474 74.1196 147.465 79.4672C147.526 81.0274 147.357 82.7014 148.034 84.1415C148.783 85.9824 149.767 88.0409 151.59 88.7772C153.798 89.8898 156.404 89.957 158.685 89.0518C160.307 88.4151 161.62 86.9648 162.382 85.2704C163.071 83.3726 163.017 81.2674 163.042 79.2618C163.027 73.487 163.035 67.7123 163.026 61.9375C157.844 62.4216 152.667 62.9932 147.482 63.4244ZM242.439 63.3634C242.745 68.5218 242.573 73.6945 242.624 78.8611C242.621 80.5453 242.879 82.2234 243.283 83.8466C243.931 86.4258 245.72 88.6409 247.991 89.5624C250.34 90.3658 253.332 90.4512 255.178 88.3378C257.176 85.7545 257.347 82.2112 257.925 79.0238C258.459 74.5244 259.519 70.1287 260.005 65.6212C256.108 64.5574 252.09 64.1506 248.099 63.8373C246.216 63.6176 244.335 63.3308 242.439 63.3634ZM294.083 72.6693C295.14 77.8481 295.975 83.0818 296.965 88.2768C297.344 89.1413 298.407 89.0416 299.095 89.2532C299.991 84.4609 299.362 79.5181 299.508 74.6627C297.709 73.965 295.92 73.2246 294.083 72.6693Z" stroke="#E9E9E9" stroke-width="4" mask="url(#path-1-outside-1_6_56)"/>
</svg>
