<svg width="29" height="28" viewBox="0 0 29 28" fill="none" xmlns="http://www.w3.org/2000/svg">
<path d="M22.6648 11.375C22.6648 9.28642 21.8094 7.28338 20.2869 5.80653C18.7644 4.32969 16.6994 3.5 14.5462 3.5C12.393 3.5 10.3281 4.32969 8.80553 5.80653C7.283 7.28338 6.42766 9.28642 6.42766 11.375C6.42766 14.6055 9.09235 18.816 14.5462 23.8595C20.0001 18.816 22.6648 14.6055 22.6648 11.375ZM14.5462 26.25C7.93049 20.4173 4.62354 15.4577 4.62354 11.375C4.62354 8.82229 5.66896 6.37413 7.52982 4.5691C9.39068 2.76406 11.9146 1.75 14.5462 1.75C17.1779 1.75 19.7017 2.76406 21.5626 4.5691C23.4235 6.37413 24.4689 8.82229 24.4689 11.375C24.4689 15.4577 21.1619 20.4173 14.5462 26.25Z" fill="black"/>
<path d="M14.5463 12.25C15.0248 12.25 15.4837 12.0656 15.8221 11.7374C16.1604 11.4092 16.3505 10.9641 16.3505 10.5C16.3505 10.0359 16.1604 9.59075 15.8221 9.26256C15.4837 8.93437 15.0248 8.75 14.5463 8.75C14.0679 8.75 13.609 8.93437 13.2706 9.26256C12.9323 9.59075 12.7422 10.0359 12.7422 10.5C12.7422 10.9641 12.9323 11.4092 13.2706 11.7374C13.609 12.0656 14.0679 12.25 14.5463 12.25ZM14.5463 14C13.5894 14 12.6716 13.6313 11.9949 12.9749C11.3183 12.3185 10.9381 11.4283 10.9381 10.5C10.9381 9.57174 11.3183 8.6815 11.9949 8.02513C12.6716 7.36875 13.5894 7 14.5463 7C15.5033 7 16.4211 7.36875 17.0978 8.02513C17.7744 8.6815 18.1546 9.57174 18.1546 10.5C18.1546 11.4283 17.7744 12.3185 17.0978 12.9749C16.4211 13.6313 15.5033 14 14.5463 14ZM24.2886 19.25L27.1752 26.25H19.0567V24.5H10.036V26.25H1.91748L4.80408 19.25H24.2886ZM22.3456 19.25H6.74712L4.58217 24.5H24.5105L22.3456 19.25Z" fill="black"/>
</svg>
